<?xml version="1.0" encoding="UTF-8"?>
<svg id="Layer_2" data-name="Layer 2" xmlns="http://www.w3.org/2000/svg" viewBox="0 0 544.34 210.2">
  <defs>
    <style>
      .cls-1 {
        fill: #231f20;
      }

      .cls-2 {
        isolation: isolate;
      }
    </style>
  </defs>
  <g id="Layer_1-2" data-name="Layer 1">
    <g id="Layer_2-2" data-name="Layer 2">
      <g>
        <path class="cls-1" d="M4.3,77.14c.11-6.81-.9,2.06-1.77,9.66l.8,6.99.97-16.65Z"/>
        <path class="cls-1" d="M1.63,114.53l.11,18.9.23-13.63c1.59-15.05,1.23,2.09,1.11,7.8,1.23-24.73-.96-9.08-1.44-13.07h0Z"/>
        <path class="cls-1" d="M.32,151.64c-.84,12.07.2,8.75.78,3.69-.31-.82-.2-8.74-.78-3.69Z"/>
        <path class="cls-1" d="M504.42,33.66c3.03,1.21,6.67,2.17,6.13,2.27,1.82.29,2.96.4,2.25.16-.36-.11-1.15-.34-2.54-.68-.67-.19-1.48-.41-2.45-.68-.97-.29-2.09-.64-3.39-1.08h0Z"/>
        <path class="cls-1" d="M510.55,35.94c-.72-.1-1.42-.26-2.31-.43.72.16,1.3.32,2.13.47.22.02.1-.03.18-.04Z"/>
        <path class="cls-1" d="M443.61,163.5c-1.92-2.67-4.43-4.53-7.01-5.65-2.59-1.1-5.25-1.46-7.72-1.09-1.24.17-2.43.53-3.5,1.08-1.08.53-2.08,1.19-2.93,2.01-1.73,1.59-2.92,3.77-3.88,6.01l-.16.35c-.06.13-.07.12-.1.19l-.17.3-.33.61c-.11.2-.21.42-.33.62l-.41.58c-.49.8-1.15,1.52-1.79,2.28-1.39,1.46-3.12,2.86-5.35,4.2-.9.36-1.9.59-2.83.86-.48.12-.99.21-1.47.32s-.97.21-1.49.28c-2.71,1.05-4.53,1.48-5.68,1.85-1.17.32-1.72.53-2.16.74-.44.2-.79.36-1.58.6-.79.24-2.04.53-4.32.8-2.9,0-6.81-.08-11.14-.21-4.35-.12-9.19-.26-13.99-.08s-9.53.72-13.45,1.6c-3.92.87-6.99,2.04-8.55,2.64-2.26.66-1-.06,1.17-1.03,2.2-.99,5.39-1.93,6.49-2.32-4.57,1.13-7.85,2.57-10.3,3.82-2.48,1.26-4.31,2.39-6.2,3.54-1.88,1.15-3.82,2.38-6.32,3.77-1.25.7-2.64,1.42-4.24,2.16-.8.37-1.65.73-2.55,1.07-.86.32-1.8.63-2.82.89l-.34-.21c-4.75,1.41-10.11,1.44-13.71-.58-.47-.22-.86-.55-1.29-.83-.37-.35-.78-.64-1.14-1.03-.74-.78-1.51-1.87-2.37-3.18-.86-1.3-1.79-2.85-3.03-4.45-.63-.77-1.24-1.57-1.91-2.3-.7-.71-1.37-1.45-2.1-2.12-2.92-2.71-6.25-4.86-9.69-6.56s-7-2.96-10.56-3.97c-7.13-2.02-14.28-3.03-21.23-4.09-14.03-2.11-28.51-3.84-43.05-3.66-3.63.05-7.26.19-10.87.5-1.81.12-3.59.36-5.38.57-1.78.22-3.57.4-5.31.71-7.05,1.03-13.83,2.54-20.46,4.01,3.61-.71,2.76-.29,4.19-.37-14.05,2.93-28.32,6.6-42.76,8.39-14.42,1.75-29.02,1.16-42.22-3.94-6.7-2.43-13.33-5.43-20.27-7.62-3.48-1.07-7.03-1.99-10.68-2.41-3.65-.4-7.39-.3-10.96.49-.88.25-1.76.49-2.63.73-.86.29-1.67.68-2.5,1.02-1.67.67-3.19,1.63-4.59,2.6-2.81,1.98-5.18,4.22-7.45,6.32-2.27,2.11-4.47,4.08-6.83,5.67-2.29,1.53-4.91,2.52-7.56,2.93,1.82-.19,3.7-.66,5.51-1.44,1.8-.76,3.55-1.92,5.3-3.22,3.49-2.59,6.83-5.93,10.94-8.74,1.02-.7,2.1-1.36,3.23-1.94,1.12-.62,2.36-.99,3.55-1.47.59-.26,1.23-.38,1.86-.54.63-.15,1.26-.3,1.9-.46l1.94-.23c.65-.07,1.3-.18,1.95-.15,5.25-.15,10.47,1.02,15.44,2.65,4.97,1.66,9.77,3.74,14.5,5.69,2.37.98,4.72,1.93,7.07,2.79,1.17.46,2.36.82,3.52,1.22,1.17.39,2.37.64,3.54.97,9.4,2.49,18.59,2.68,26.3,1.9,2.87.14,6.14-.16,9.48-.44,3.34-.43,6.76-.87,9.95-1.48,6.4-1.11,11.93-2.32,14.4-2.29,10.96-2.2,20.26-4.35,28.83-5.89,4.28-.76,8.37-1.44,12.38-1.91,4-.55,7.92-.84,11.83-1.03,15.64-.71,31.15.58,52.43,4.14,6.1,1.27,3.03,1.25,4.7,2.06-5.64-1.01-11.27-1.77-16.91-2.56-5.64-.76-11.31-1.41-16.99-1.87,6.9.8,13.75,1.89,20.58,3.09-4.48-.47-12.13-1.55-19.02-2.17-6.88-.63-12.98-.76-14.24-.33,7.42,0,15.95.67,24.93,1.81,4.49.57,9.1,1.25,13.74,1.98,4.65.72,9.32,1.54,13.88,2.69,4.55,1.18,9.02,2.66,13.04,4.82,2.04,1.03,3.89,2.33,5.65,3.67.42.36.83.73,1.25,1.09l.62.54.57.59,1.14,1.17c.34.42.68.83,1.02,1.25,1.38,1.64,2.43,3.47,3.58,5.17,1.14,1.7,2.33,3.31,3.82,4.53,1.45,1.24,3.07,2.15,4.71,2.78,1.65.6,3.31.92,4.89,1.08-2.94-.48-6-1.55-8.54-3.59-2.6-1.97-4.28-5.05-6.23-8.08-1.99-3.04-4.58-5.81-7.58-8.01-2.99-2.22-6.32-3.93-9.71-5.29-2.93-1.35-6.83-2.64-9.92-3.52-3.09-.89-5.34-1.48-4.98-1.67,5.17.81,10.24,1.91,15.11,3.64,2.42.91,4.81,1.92,7.07,3.2,2.24,1.31,4.43,2.75,6.35,4.54,1.92,1.76,3.69,3.78,5.1,5.92,1.4,2.1,2.55,4.12,3.89,5.72,2.58,3.15,6.49,4.83,10.75,5.19,4.25.37,8.74-.41,12.9-2,4.26-1.63,8.42-3.94,12.8-6.28,4.36-2.33,9.07-4.69,14.32-6.11,2.6-.69,5.26-1.19,7.94-1.55,2.69-.33,5.39-.52,8.12-.62,5.46-.2,11.78.06,16.87.17,5.12.14,8.99.03,9.85.16-3.35.35-3.78.46-4.04.62-.27.15-.37.34-3.2.48,3.74-.13,5.64-.43,6.77-.7,1.13-.29,1.49-.53,2.06-.77.55-.28,1.32-.49,3.2-.93.47-.1,1.01-.22,1.64-.36.62-.15,1.32-.32,2.12-.52.8-.19,1.67-.47,2.67-.74.49-.16,1-.33,1.55-.51.55-.17,1.12-.37,1.7-.61-.58.88-1.24,1.67-1.92,2.51,1.87-1.05,4.22-2.23,6.77-3.72,2.54-1.5,5.25-3.41,7.53-6,1.17-1.27,2.15-2.76,3.01-4.34.21-.32.49-.98.75-1.51.27-.55.55-1.1.86-1.62.62-1.04,1.39-1.99,2.4-2.66.99-.69,2.17-1.09,3.38-1.19s2.42.09,3.58.45c2.31.74,4.39,2.24,5.89,4.21.47.81.62,1.27.68,1.52.06.26,0,.3-.16.16-.3-.23-1.04-1.42-2.47-2.78-1.43-1.31-3.74-2.75-6.64-2.86-.72,0-1.46.08-2.19.3-.72.23-1.41.62-2.02,1.12-1.22,1.03-1.99,2.53-2.67,4.07.81-1.73,1.66-3.2,2.87-4.11.59-.46,1.24-.76,1.88-.98.65-.17,1.28-.29,1.89-.28,2.44,0,4.34.9,5.9,1.99.78.56,1.48,1.22,2.11,1.98.31.37.63.82.9,1.2.26.39.52.8.77,1.23,1,1.7,1.79,3.73,2.88,6.05-1.85-2.69-3.37-6.09-6.07-8.51,2.23,2.09,3.36,4.74,4.41,7.05.53,1.16.99,2.3,1.58,3.3.28.51.56,1.02.84,1.51.27.51.63.93.93,1.4,2.51,3.64,5.64,6.27,8.58,7.81.42,0-.62-.91-.14-1.02.24-.06.83.12,2.22.5.34.11.73.23,1.18.37.46.11.97.24,1.54.39,1.14.33,2.56.57,4.3.84,2.99.44,3.74.44,3.9.63.16.14-.27.28.46.4.2-.09.67-.17,1.4-.35.73-.18,1.73-.27,2.97-.6,2.48-.53,5.98-1.38,10.09-3.47.86-.18-.4.75-2.05,1.59-.8.48-1.74.83-2.48,1.18-.37.17-.7.33-.95.47-.25.12-.43.21-.49.29,3.49-.9,6.46-2.33,9.07-3.83,2.63-1.49,4.88-3.12,6.98-4.69,1.19-1.08,1.98-1.96,2.56-2.6.59-.63.91-1.08,1.1-1.34.37-.53.12-.41-.22-.17-.7.48-1.8,1.37.6-1.63,3.24-3.56,4.7-5.65,5.57-6.51.82-.9.94-.66.86-.07-.15,1.16-1.2,3.68,1.32.95-1.94,3.22-4.32,6.54-7.09,9.6-2.77,3.06-5.96,5.83-9.31,8.04-1.68,1.1-3.37,2.06-5.08,2.88-.87.38-1.71.8-2.56,1.1-.85.29-1.68.58-2.48.86-3.25.92-6.11,1.36-8.25,1.53,5.09-.32,10.2-1.55,14.73-3.95,4.49-2.31,8.54-5.35,12-8.87-.23.41.62-.19,1.8-1.23.57-.53,1.24-1.15,1.9-1.8.64-.66,1.29-1.34,1.86-1.93,1.1-1.22,1.93-2.11,1.93-1.89-.04.2-.79,1.6-3.3,4.7,5.09-5.57,9.26-12.24,12.7-19.29,3.49-7.13,5.8-14.34,10.02-19.37,2.08-2.53,4.98-4.91,7.87-7.85,1.43-1.47,2.9-3.13,4.05-4.97l.9-1.35c.29-.46.51-.94.76-1.41.47-.96,1.03-1.88,1.37-2.87.36-.98.79-1.94,1.08-2.92.28-.98.55-1.96.82-2.93.19-.97.39-1.94.58-2.9.2-.96.27-1.91.41-2.85.44-3.76.59-7.39.61-10.8-.14,1.93-.35,4.18-.55,5.83-.24,1.66-.47,2.72-.61,2.28.28-3.62.3-6.17.4-8.06.09-1.89.17-3.08.29-3.94.23-1.71.51-2.02.75-3.44-.06-5.09-.22-7.28-.43-9.04-.12-.88-.25-1.65-.3-2.57-.06-.93-.15-2.04.02-3.56.56-2.5,1.38-4.67,2.05-6.74.68-2.06,1.27-3.99,1.65-5.86.79-3.7.72-7.28-.45-10.37-1.07-3.11-3.08-5.85-5.89-8.08-2.82-2.24-6.39-4.03-10.89-5.6l.85,1.27c-6.31-2.22-10.03-2.57-13.76-3.17-3.75-.57-7.49-1.1-13.77-3.82-.63-.48,4.33,1.22,8.32,2-2.85-.67-4.91-1.42-6.56-2.07-1.65-.67-2.9-1.26-4.14-1.87-2.49-1.2-4.89-2.47-10.64-4.52,3.15.82,6.23,1.73,9.27,2.56-4.35-1.76-9.93-4-14-5.35-4.05-1.37-6.45-2.03-3.75-1.83-4.35-.95-9.91-1.72-15.89-1.26-5.91.48-11.85,1.98-17.61,3.34-5.76,1.36-11.48,2.52-16.62,2.15-2.55-.22-4.94-.76-7.11-1.71-2.14-.92-4.2-2.35-6.3-3.83l1.58.12c-1.11-.65-2.44-1.57-4.05-2.66-1.61-1.08-3.54-2.34-5.88-3.42-2.34-1.07-4.92-1.82-7.51-2.29-2.6-.48-5.2-.69-7.71-.82-2.52-.12-4.91-.17-7.24-.24-2.33-.05-4.58-.09-6.66-.13-4.18-.05-7.73,0-10.07.23l-1.57-.4-21.43.44c-9.68-.42-6.35-1.6-7.15-1.27-5.32-.13-10.34-.25-15.11-.36-4.76-.13-9.33-.27-13.72-.17-8.76.14-16.89,1.35-23.81,4.25-.76.6-2.65,1.86-4.99,3.31-1.18.71-2.5,1.46-3.94,2.01-.72.28-1.46.51-2.28.62-.4.06-.81.17-1.23.21-.42,0-.86.03-1.29.04-3.52.06-7.52-1.55-11.33-3.9-3.84-2.31-7.58-5.25-11.38-7.74-2.25-1.55-4.64-3.04-7.28-4.2-2.61-1.26-5.45-1.93-8.29-2.43-5.71-.78-11.61-.25-17.06,1.7-5.48,1.85-10.5,5.1-14.5,9.41-.51.53-.94,1.13-1.41,1.69-.46.57-.94,1.14-1.32,1.77l-1.2,1.86c-.38.62-.71,1.26-1.04,1.88-1.31,2.48-2.44,4.92-3.84,6.97-1.39,2.06-3.05,3.6-5.05,4.21-1.98.62-4.41.28-6.97-.34-1.27-.31-2.64-.67-4.01-.98-1.36-.34-2.74-.6-4.12-.88-2.76-.52-5.53-.95-8.32-1.24-5.57-.61-11.19-.78-16.77-.47-5.58.27-11.13,1.02-16.58,2.2-.67.14-1.38.29-2.02.46l-1.51.37-.19.05c-.06,0-.12-.04-.18-.06l-.36-.14-.73-.27-1.81-.68c-1.33-.43-2.64-.89-3.98-1.28-1.34-.36-2.67-.78-4.03-1.08-5.4-1.3-10.9-2.07-16.4-2.31-10.99-.49-21.98,1.15-32.1,4.78-2.51.89-4.94,1.8-7.4,2.3-2.46.51-4.92.52-7.22-.26-2.34-.75-4.59-2.2-7.23-2.97-.65-.18-1.28-.45-1.96-.55l-2-.36c-1.34-.09-2.69-.24-4.02-.1-1.34.02-2.65.31-3.95.53-1.28.34-2.56.66-3.77,1.17-.62.22-1.23.46-1.81.76-.59.29-1.18.55-1.75.86-1.12.66-2.25,1.29-3.29,2.07-1.08.71-2.04,1.58-3.03,2.38-.91.9-1.89,1.73-2.71,2.71-1.74,1.86-3.2,3.96-4.45,6.14-3.07,5.21-4.89,12.27-5.4,19.68-.56,7.43,0,15.21.42,22.64-.05-9.11-.02-14.04.28-18.91.14-2.44.39-4.85.87-7.72.5-2.86,1.25-6.2,2.91-10.24,1.33-3.02,2.83-5.29,4.38-7.17.83-.89,1.56-1.77,2.41-2.48.41-.37.8-.73,1.2-1.07.42-.32.84-.63,1.25-.95.8-.65,1.71-1.13,2.55-1.7.9-.49,1.79-1,2.75-1.44,1.91-.91,4.04-1.65,6.51-2.21-.87.05-1.73.26-2.62.38-.86.22-1.75.43-2.63.7.91-.51,1.77-.96,2.57-1.32.82-.31,1.56-.66,2.27-.86.71-.2,1.36-.39,1.95-.54.61-.1,1.16-.18,1.66-.27,1.01-.15,1.85-.09,2.58-.13.72.05,1.34.14,1.93.2.59.04,1.13.25,1.73.35.3.07.61.11.94.21.32.1.67.21,1.04.34.76.21,1.61.48,2.73.97,1.13.45,2.5,1.1,4.43,1.69-.39.41-.79.82-1.19,1.22.72.18,1.61.42,2.67.62,1.06.18,2.23.32,3.45.32,2.44,0,5-.44,7.32-1.06,2.34-.6,4.51-1.32,6.37-1.8,1.87-.47,3.52-.86,4.76-1.04,1.35-.75,2.75-1.4,4.17-2.06,5.5-.79,10.08-.91,13.67-.74,3.59.15,6.2.63,7.81,1.22l-1-1.05c.51.12,1.56.19,2.95.4.7.09,1.49.19,2.35.29.85.14,1.78.29,2.75.44,3.88.66,8.49,1.77,12.43,3.16.98.35,1.95.66,2.83,1.05.64.26,1.27.51,1.87.76.34.14.66.27.99.4l.48.2.24.1s.08.03.12.05l.12-.03c1.29-.27,2.46-.52,3.48-.73.65-.13,1.22-.2,1.67-.24,1.81-.18,1.78.08-1.29,1.17,3.03-.86,5.79-2.04,12.75-2.63l1.13.9c4.95-.53,10.25-.63,14.63-.31,4.38.3,7.84.93,9.2,1.45-2.67-.32-4.48-.37-5.83-.31-1.35.03-2.26.21-3.15.34,5.18.41,9.17,1.06,12.27,1.61,3.13.55,5.21,1.03,7.28,1.37,2.01.33,3.58.37,4.68.26,1.11-.1,1.8-.33,2.4-.56.61-.26,1.18-.49,2.06-.86.89-.37,2.19-.86,3.95-2,1.77-1.12,3.84-3.1,5.58-5.94.89-1.41,1.73-3.02,2.6-4.78.42-.85.88-1.75,1.36-2.72.24-.47.49-.92.74-1.39.27-.43.56-.87.85-1.33l.32.68c1.31-2.54,3.1-4.91,5.31-6.92,2.61-1.73,5.48-3.04,8.44-3.9,2.69-1.63,7.36-3.14,12.97-2.88,2.79.11,5.76.79,8.63,2,2.87,1.19,5.79,3.15,8.76,5.29,2.97,2.15,6.02,4.56,9.44,6.74,3.4,2.15,7.25,4.22,11.72,4.87.55.07,1.11.15,1.66.22h1.68c1.12.05,2.21-.18,3.29-.32,2.19-.36,4.14-1.18,5.82-1.99,1.69-.82,3.17-1.68,4.52-2.43,1.35-.76,2.58-1.36,3.84-1.94,3.98-1.67,9.06-2.48,15.23-2.6,6.18-.16,13.54.48,22.47.69l-1.12-1.02c7.15.74,24.06,1.71,40.84,2.83,4.19.29,8.38.59,12.41.87,2.01.16,3.98.31,5.9.46,1.91.16,3.78.3,5.46.48,3.39.34,6.18.88,8.25,1.63,2.1.75,3.39,1.63,4.28,2.46,9.77,5.7-1.02-1.19-.25-1.25,2.19.95,4.36,2.52,6.49,4.05,2.12,1.55,4.28,3.07,6.48,4.28,4.55,2.38,8.42,3.27,11.7,3.79,1.62.18,3.16.39,4.6.41,1.48.09,2.85.06,4.29.02,2.84-.11,5.82-.41,9.33-1.04,4.05-1.02,5.17-1.37,4.91-1.38-.26,0-2.01.32-4.03.72-1.03.19-2.12.38-3.11.56-1.02.16-1.94.28-2.58.35-.63.07-1.02.06-.94-.02.09-.08.61-.25,1.73-.56,3.28-.51,5.89-1.09,8.14-1.57,2.18-.48,4.05-.89,5.72-1.26,3.26-.73,5.61-1.15,8.11-1.47.62-.06,1.24-.12,1.89-.18.65-.03,1.31-.02,2.02-.03,1.42.03,3.01.15,4.87.48,3.74.62,8.52,2.15,15.44,5.18,1.28.82-.57.16-3.08-.75-2.52-.95-5.64-1.95-7.08-2.22,2.4.63,5.07,1.49,8.02,2.59,2.95,1.09,6.16,2.4,9.68,3.73,3.52,1.33,7.36,2.71,11.58,3.77,4.19,1.05,8.25,1.72,12.2,2.59,3.91.86,7.78,1.84,10.86,3.36.81.35,1.47.79,2.16,1.2.34.21.59.46.9.67l.45.33.36.37c1.06.93,1.65,1.99,2.12,3.18.1.31.2.62.32.92.05.32.15.61.17.94.11.63.1,1.35.07,2.09-.09,1.51-.43,3.22-.94,5.07-.49,1.85-1.13,3.83-1.71,5.98-.3,1.07-.56,2.2-.78,3.32-.23,1.12-.47,2.23-.59,3.31-.86,4.97-1.12,10.1-1.31,15.22-.2,5.11-.29,10.27-1.02,15.1-.1.6-.19,1.2-.29,1.81-.1.6-.26,1.16-.38,1.75-.22,1.19-.62,2.26-.95,3.37-.8,2.13-1.71,4.17-3.04,5.91-.61.92-1.28,1.74-2.13,2.59-.83.86-1.78,1.74-2.82,2.68-2.07,1.88-4.53,3.95-6.89,6.73-2.34,2.76-4.13,5.73-5.64,8.62s-2.75,5.72-3.95,8.35c-2.35,5.16-4.95,10-7.97,14.4-1.52,2.18-3.1,4.26-4.8,6.15-1.71,1.88-3.49,3.6-5.35,5.12-1.88,1.49-3.83,2.77-5.82,3.85-2.08,1.06-3.91,1.76-5.93,2.3-.16.18-.34.32-.51.49-3.45.61-7.1.72-10.65.15l-1.31-.26-.66-.13-.64-.19-1.28-.36-1.23-.47c-.85-.26-1.57-.72-2.36-1.06-.38-.2-.71-.44-1.08-.66-.36-.22-.74-.42-1.04-.7l-.99-.75c-.31-.27-.58-.57-.87-.84l-.45-.42c-.14-.15-.25-.31-.38-.47-.25-.31-.5-.62-.77-.93l-.63-1.03-.33-.51-.3-.59c-.41-.83-.85-1.88-1.38-3.11-.53-1.22-1.15-2.63-2.01-4.16l-.34-.58-.18-.29-.23-.36c-.36-.57-.72-1.05-1.1-1.56-.78-.99-1.63-1.91-2.6-2.7-3.82-3.2-8.95-4.67-13.66-3.44,6.17-1.53,13.01,1.7,16.54,7.22h.02Z"/>
        <path class="cls-1" d="M206.31,170.27c1.13.25,2.25.55,3.36.83,6.44-.17,12.92.08,19.4.52-3.9-.72-6.89-.98-10.26-1.13-3.36-.13-7.1-.2-12.51-.21h0Z"/>
        <path class="cls-1" d="M210.51,167.69c-3.44.11-6.87.29-10.29.62,5.54-.32,11.1-.33,16.65-.1-2.11-.22-4.23-.37-6.36-.52h0Z"/>
        <path class="cls-1" d="M435.66,166.62c-.53-.54-1.14-1.02-1.81-1.41-1.26-.61-2.7-.89-4.07-.62-1.39.26-2.52,1.27-3.17,2.49-.69,1.24-1.03,2.42-1.89,3.94-.19.36-.36.73-.57,1.08l-.67,1.02-.68,1.02c-.25.32-.51.63-.77.95-4.14,5.1-10.01,8.47-16.08,10.49,3.26-1.09,6.43-2.52,9.34-4.41,2.91-1.88,5.56-4.24,7.63-7.07.48-.73.99-1.45,1.44-2.19l1.2-2.31c.59-1.31,1.07-2.72,2.13-3.75,1.06-1.02,2.62-1.37,4.05-1.13,1.44.23,2.79.93,3.91,1.89h.01Z"/>
        <path class="cls-1" d="M505.93,33.25c2.02.42,4.29.92,6.82,1.42,2.52.48,5.15.96,7.41,1.28-2.93-.54-5.79-1-8.54-1.54-1.4-.25-2.66-.57-3.99-.88-1.31-.37-2.63-.71-3.95-1.15.75.3,1.5.62,2.24.88h.01Z"/>
        <path class="cls-1" d="M341.95,6.57c-6.68,1.3-13.19-.45-4.43,1.22,10.45.09,1.42-.81,4.43-1.22Z"/>
        <path class="cls-1" d="M301.95,8.25c6.42-.44,9.85-.53,13.24-.72-4.07-.41-6.25-.34-7.95-.15-1.7.2-2.94.53-5.3.87h.01Z"/>
      </g>
      <g>
        <path class="cls-1" d="M198.57,183.69c-.48-.05-.47.62-.5,1.17l1.16-.56-.66-.61Z"/>
        <path class="cls-1" d="M199.62,185.42c.54,0,1.08,0,1.64.05-.32-.09-.63-.17-.95-.24,0-1.06,1.14-.76,1.54-.6-1.14-.97-1.52.53-2.23.79h0Z"/>
        <path class="cls-1" d="M201.58,186.49c.26.62.9.08.98-.32-.34.13-.9-.06-.98.32Z"/>
        <path class="cls-1" d="M176.92,188.83c-.18.11-.3.25-.54.26.24.1.44.09.54-.26Z"/>
        <path class="cls-1" d="M176.38,189.09s-.09-.04-.14-.07c.02.03.03.05.06.07h.08Z"/>
        <path class="cls-1" d="M182.3,203.57c.75-.62,1.16-.22,1.87-.48l.38,1.04c.76-.33.34-.87.9-1.41.69.66,2.16.07,2.49.12.22.48-.29.66-.4.95.89-.34.84-1.33,1.95-1.33l.02.28c1.36-.73,2.73-.97,4.53-1.2,1.77-.24,3.96-.58,5.91-1.82-.3.06-.31-.18-.48-.33,1.04-.46,2.06-1.07,2.99-1.88.92-.82,1.75-1.86,2.22-3.09.49-1.23.54-2.55.23-3.63-.31-1.09-.94-1.91-1.73-2.39.4.87.28,2.32-.23,3.49-.47,1.22-1.13,2.14-1.3,3.5-.53-.02-.83.31-1.16.57-.32.26-.65.43-1.01.03-1.28.37-2.05.88-2.91,1.44-.85.55-1.77,1.09-3.01,1.12-.35-.18-.19-.69-.29-1.18.63-.17,1.27-.35,1.89-.56-.4-.11-.78-.23-1.17-.35.47-.46,1.68-.22,1.7-1.17-1.43,1.31-4.12.35-5.53,1.66.67.24,1.5-.03,2.29.06.35.33.9.57.87,1.07-2.32,1.44-4.15.71-6.49,1.15-.58.11-1.37.02-1.46-.47.38-.17.1-.58.41-.81-.83.41-.1,1.78-1.28,1.58l.17-1.71c-.49,1.81-1.45-.33-2.31.72-.3-.69.26-1.08.92-1.12-.74-.3-.81.69-1.4.66l.57-1.46c-.63,1.39-1.14-.28-1.46-.75-.07.35.28,1.48-.6,1.37-.35-.2-.11-.56-.17-.77-.08.35-.49,1-1.11.97.02-.48.55-.68.67-1.18-.39,0-.75.06-.9-.38-.82.29-.18.69-.8,1.12-.52-.28-.35-.68-.08-1.15.28-.47.63-1.02.7-1.55.89-.52,1.59-.71,1.9-1.08-.32.12-.68.22-1.05.3.21-.55-.19-1.06.42-1.52-.24-.32-.56-.38-.98-.43-.42-.05-.93-.11-1.33-.3-.12.23-.13.43-.45.66-.56-.17.11-.6.45-.91-.49-.02-1.4.55-2.18.68.26-.64.31-.89.4-1.15.09-.25.24-.53.83-.96l-.99.26c.39-.33.21-.42,0-.54-.2-.12-.43-.28-.13-.57.21-.03.46.16.69.29-.31-.43.85-.4.49-.78.36.13.72.24,1.08.32-.03-.11-.3-.96.61-.6-1.05-.97-.43-2.34-.89-3.4l.83.22c-.47-.34-.36-.79-.27-1.21.09-.42.17-.82-.36-1.2l.35.04c-.27-.41-.52-.84-.76-1.29.27-.37,1.39.29,1.07.11.15-.89.46-1.52,1.14-1.7-.87-.78-.47-1.79.06-2.48,1.71-1.17,3.5-2.43,5.36-3.86,1.84-1.42,3.65-2.92,5.42-4.33.58-.28.98-1.79,1.6-2.59-1.06.07-.96.65-1.9,1.01-.81,0-1.51-1-2.42-1.41l.69.76c-.65,1.13-.87-.19-1.22,1.04l-.61-1.44c.06.85-.88.56-1.33.33l.22,1.09c-.85-.24-1.35-.27-1.99-1.05l.51.85c-.52-.45-2.23,1.31-2.33-.54-.07.29.02.83-.41.94l-.55-.82c-.43.54-.95,1.08-1.4.7.18-.39.06-.82-.06-1.25-1.27.67-.97,1.46-.6,2.22.37.77.79,1.51-.17,2.25l-.35-.54-.1.92c-.34-.08-.68-.16-1.03-.23.32,1.14-.36,1.64-1.19,2.22-.82.56-1.81,1.25-1.81,2.26-.2.6-1.81.65-2.26,1.89l.92.36c-.67.21-1.53,1.12-2.42,2.06-.9.94-1.86,1.88-3.07,2.11.56,1.07.22-.06.98.13.67,1.92-.84,1.74-1.55,2.57.36,1.09.48-.74,1.14-.09-.48.73-.21,1.08.07,1.46.14.19.28.39.33.65.03.13.03.27,0,.46,0,.09-.03.19-.07.29-.04.14-.08.29-.13.46-.29.13-.37-.06-.43-.33-.05-.26-.09-.44-.26-.58.05.09.1.19.15.29l.06.15.05.23c.06.32.1.65.13,1,.05.7.1,1.45.15,2.24.11,1.57.4,3.26,1.1,4.55.36,1.7,1.5,3.64,3.22,5.13s3.96,2.49,6.17,3.17l.15-.34c.42.28.9.44,1.39.52.25.04.5.06.76.07h.62c.62-.04,1.1-.15,1.69.06l-.55-.53h0Z"/>
        <path class="cls-1" d="M195.99,194.13l-.27-.81c-.25.23-.53.45-.83.67.44.65.59.04,1.1.14Z"/>
        <path class="cls-1" d="M196.15,196.7c.17-.16.34-.32.5-.48-.29.08-.59.14-.89.2l.39.28Z"/>
        <polygon class="cls-1" points="182.5 195.48 182.64 195.61 184.69 194.91 182.5 195.48"/>
        <path class="cls-1" d="M177.78,188.82c.44.07.25.22.56.27-.14-.09-.29-.2-.42-.33l-.14.07h0Z"/>
        <path class="cls-1" d="M182.27,183.06c-1.33-.76.16-.32-1.21-.65.11.39.77.37,1.21.65Z"/>
        <path class="cls-1" d="M180.8,181.09c-.13.14,0,.33.16.53.7.14.02-.25-.16-.53Z"/>
      </g>
      <g>
        <path class="cls-1" d="M126.88,28.96c-.66.02-.2.77.29,1.42.36-.29.71-.58,1.05-.89-.46-.15-.89-.35-1.34-.53Z"/>
        <path class="cls-1" d="M129.78,30.49c.65-.23,1.29-.53,1.89-.81-.41.11-.83.21-1.26.31-1.02-1,.56-1.23,1.03-1.37-1.97-.23-1.14,1.25-1.66,1.87Z"/>
        <path class="cls-1" d="M133.11,30.24c1,.23.8-.64.44-.96-.1.35-.81.64-.44.96Z"/>
        <path class="cls-1" d="M114.13,15.03c.33.05.69.03.74.26.2-.35.18-.55-.74-.26Z"/>
        <path class="cls-1" d="M114.86,15.29c-.04.06-.08.13-.13.21.05-.04.1-.07.15-.13,0-.04-.01-.05-.02-.08Z"/>
        <path class="cls-1" d="M136.75,16.78c.61-.78,1.04-.46,1.62-.77.14.33.27.67.38,1.01.57-.34.25-.89.73-1.4.55.65,1.56.32,1.73.46-.07.49-.38.55-.53.82.49-.19.93-1.08,1.44-.77l-.16.23c.25-.06.39-.06.63-.07.16.06.4.08.56.23.37.23.68.69.85,1.29.41,1.19.3,2.79.07,4.29.13-.16.31-.02.53,0-.24.8-.65,1.58-1.16,2.24-.12.18-.25.35-.39.49-.15.15-.25.33-.44.48l-.51.49c-.18.15-.37.3-.55.46-.75.6-1.56,1.16-2.41,1.74-.86.54-1.73,1.15-2.62,1.78,1.22-.17,2.91-.06,4.57-.51,1.63-.41,3.2-1.48,3.42-2.95.58,0,.9-.51,1.18-.91.25-.43.52-.76,1.04-.66,1.13-1.43,1.2-2.86,1.03-4.08-.19-1.25-.61-2.35-.89-3.76.08-.44.62-.37,1.06-.61.22.39.32.83.49,1.26.1.44.24.9.3,1.36.1-.28.13-.57.19-.86.05-.29.11-.59.12-.89.31.34.35,1.02.46,1.62.06.6.2,1.16.62,1.32-.4-1.42-.52-3.11-1.11-4.68-.55-1.56-1.67-2.9-2.9-3.11.55.79,1.46,1.63,1.82,2.76-.07.58-.17,1.38-.65,1.44-1.07-1.23-1.8-2.02-2.64-2.73-.83-.72-1.92-1.34-3.31-1.43-.69-.05-1.63-.21-1.74-.69.51-.14.16-.58.6-.77-1.15.35-.23,1.73-1.69,1.54.04-.57.08-1.15.14-1.72-.3.91-.76.86-1.34.76-.56-.1-1.27-.24-1.72.42-.59-.55.09-1.16,1.04-1.37-1.13-.09-1.01.91-1.82,1.1.13-.53.27-1.09.43-1.62-.57,1.57-1.71.2-2.43-.05.06.36.89,1.23-.25,1.56-.55,0-.43-.43-.62-.58.07.36-.09,1.13-.8,1.47-.33-.39.2-.88.06-1.36-.55.26-.97.55-1.54.36-.82.82.35.61-.02,1.37-1.64.38-.87-1.47-1.86-2.14.84-1.18,2.32-2.06,2.86-2.68-.76.44-1.49.9-2.19,1.37-.1-.59-1.95-.18-.98-1.24-2.52.6-4.71,2.37-6.6,3.74.37.05.8-.01.89.34-.93.79-1.11.09-1.5-.19-.62.72-.13,1.58-.31,2.47-1.97,0-2.01.53-3.89.05l.48.87c-1.31-.3-.86,1.14-2.17,1.06-.14-.17.17-.58.41-.93-.82.7-1.2-.4-1.98.35l.3-1.33c-.72.35-1.67,1.12-1.65.09-.85,1.58-3.29,2.11-4.67,3.36l-.21-.84c-.45,1.3-3.1,1.18-3.39,2.62l-.25-.28-1.27,1.73c-.8.2-1-1.11-.94-.75-1.6.85-2.89,1.42-4.13,1.4.13,1.18-1.54,2.12-2.91,2.77-7.06,1.82-14.08,5.39-20.07,8.83-.94.37-1.85,2.03-2.87,2.97,1.56-.24,1.51-.83,2.96-1.32,1.18-.09,1.97.89,3.14,1.27l-.79-.75c1.21-1.24,1.18.14,2.02-1.18l.46,1.49c.15-.9,1.39-.63,1.94-.39l.03-1.15c1.12.24,1.8.27,2.4,1.1l-.41-.9c.55.47,3.52-1.34,2.98.63.19-.31.27-.87.9-.97l.42.9c.76-.54,1.65-1.05,2.08-.61-.38.38-.39.85-.4,1.31,3.65-1.1-.32-3.31,2.82-4.52l.18.62.57-.93,1.12.46c.4-2.47,4.51-1.43,6.02-3.23.69-.44,2.13.39,3.5-.28l-.44-.89c1.51.51,6-.56,7.92,1.12.8-1.14-.19-.15-.46-.88,1.73-1.79,2.45-.42,3.78-.33,1.11-.99-1.13.06-.72-.91,2.27-.13,1.15-1.77,3.84-2.21.46.41-.48.62-.59,1.07,1.33-1.65,4.76-2.45,7.22-3.79,1.6-.33,3.49-.94,5.45-1.58,2-.65,3.88-1.26,5.42-1.41l-.09-.35c1.47.39,2.3-.8,3.45-.62-.2-.14-.42-.27-.64-.39h-.05Z"/>
        <path class="cls-1" d="M151.07,21.18l.88-.21c-.07-.71-.22-1.41-.39-2.09-.71.78-.14,1.22-.49,2.29h0Z"/>
        <path class="cls-1" d="M148.59,20.38c.09.3.19.61.23.92.11-.46.11-.93.17-1.4l-.41.48h.01Z"/>
        <path class="cls-1" d="M135.02,8.88l.25.08c1.02-.48,2.12-.87,3.28-1.14-1.24.23-2.43.6-3.53,1.07h0Z"/>
        <path class="cls-1" d="M113.9,14.2c.16-.55.7-.58.93-1.01l-1.17.97.25.04h-.01Z"/>
        <path class="cls-1" d="M99.51,16.33c.03,1.61-1.04.38.15,1.4.73-.55-.2-.84-.15-1.4Z"/>
        <path class="cls-1" d="M97.22,19.57c.49-.14.67-.45.85-.76-.86-.4-.61.34-.85.76Z"/>
      </g>
      <g>
        <path class="cls-1" d="M358.6,7.15c.46-.07.36-.69.22-1.25l-.97.84.75.4h0Z"/>
        <path class="cls-1" d="M357.15,5.85c-.49.2-.97.45-1.44.69l.89-.24c.33.94-.74,1.13-1.08,1.23,1.17.27,1.11-1.13,1.63-1.68h0Z"/>
        <path class="cls-1" d="M355.03,5.9c-.51-.33-.68.5-.58.84.18-.31.69-.5.58-.84Z"/>
        <path class="cls-1" d="M318.54,7.61c.21.1.43.13.5.36.07-.29.03-.49-.5-.36Z"/>
        <path class="cls-1" d="M319.04,7.97s-.03.11-.05.18c.03-.03.05-.05.08-.1,0-.03-.02-.05-.02-.08h-.01Z"/>
        <path class="cls-1" d="M334.19,11.52c.2-.8.62-.56.93-.98l.62.87c.28-.48-.15-.88-.02-1.51.61.47,1.14-.3,1.36-.29.22.44-.01.68,0,.97.36-.43.15-1.41.84-1.52l.05.28c1.45-1.7,4.43-1.24,6.89-1.92-.16-.07-.1-.28-.14-.49,1.31-.06,2.7.04,4.06-.04,1.37-.08,2.72-.34,4.15-1.12-.73-.14-1.58-.75-2.53-1.14s-1.99-.54-2.88.24c-.44-.82-1.45.12-1.55-.94-2.15-.7-3.19,1.09-5.2,1.08-.29-.19-.15-.7-.23-1.18.55-.16,1.11-.31,1.68-.45l-1.02-.44c.46-.46,1.54-.07,1.72-.99-.78.51-1.75.54-2.7.63-.95.09-1.88.26-2.45.98.61.17,1.33-.15,2.04-.08.32.32.79.57.76,1.07-.99.72-1.81.94-2.64,1.09-.82.15-1.64.22-2.42.68-.39.22-.98.35-1.22-.08.23-.27-.13-.57.04-.88-.5.63.53,1.69-.39,1.84l-.53-1.63c.34,1.8-1.26.2-1.47,1.49-.54-.49-.29-1.07.21-1.36-.72,0-.33.94-.79,1.14l-.22-1.53c.13,1.49-1.02.23-1.54-.03.14.33.93,1.16.27,1.43-.36-.01-.4-.41-.56-.56.14.33.24,1.03-.15,1.3-.32-.38-.09-.79-.31-1.24-.3.2-.5.43-.93.21-.35.67.39.59.32,1.24-1.02.19-.93-1.42-1.76-2.14.28-.97,1.01-1.64,1.18-2.17l-1.05,1.06c-.22-.54-1.32-.38-.95-1.23-1.49.27-2.5,1.54-3.42,2.53.25.09.5.09.64.43-.43.61-.69-.06-.99-.38-.26.56.22,1.43.27,2.22-1.28-.31-1.2.22-2.48-.54l.45.88c-.88-.49-.37.93-1.22.65-.11-.18.02-.51.12-.81-.41.54-.82-.57-1.2,0v-1.19c-.4.2-.88.76-1.01-.21-.3,1.35-1.76,1.39-2.48,2.33l-.21-.83c-.16,1.14-1.78.54-1.84,1.85l-.18-.31-.65,1.4c-.48.04-.68-1.25-.62-.89-.92.5-1.68.78-2.43.52.13,1.15-.85,1.72-1.66,2.07-4.23.3-8.46,2.2-12.15,4.21-.58.15-1.16,1.55-1.79,2.23.95.11.93-.47,1.81-.63.72.17,1.17,1.29,1.88,1.91l-.47-.9c.76-.94.71.39,1.24-.7l.26,1.54c.1-.84.85-.31,1.19.04l.03-1.11c.68.48,1.09.65,1.46,1.58l-.24-.96c.33.57,2.17-.54,1.82,1.25.12-.25.17-.78.56-.75l.25.96c.48-.36,1.02-.67,1.29-.16-.24.29-.25.73-.25,1.18,2.28-.3-.19-3.26,1.75-3.77l.12.63.35-.77.7.67c.21-2.29,2.81-.46,3.71-1.9.41-.3,1.37.78,2.22.4l-.33-.93c.98.78,3.82.56,5.25,2.48.45-.95-.14-.17-.37-.92,1-1.41,1.6,0,2.51.29.66-.76-.76-.12-.57-.98,1.53.25.59-1.51,2.36-1.5.36.45-.25.52-.28.92.72-1.36,2.96-1.63,4.46-2.59,1.06-.1,2.29-.49,3.57-.87,1.27-.4,2.47-.77,3.54-.87l-.14-.33c1.15.4,1.46-.74,2.33-.71-.19-.11-.38-.2-.58-.3l-.05-.02Z"/>
        <path class="cls-1" d="M343.47.85l-.13-.85-1.06.52c.38.7.62.12,1.18.32h.01Z"/>
        <polygon class="cls-1" points="343.1 3.41 343.64 3.04 342.8 3.06 343.1 3.41"/>
        <path class="cls-1" d="M330.67,4.24l.17.06c.47-.49.95-.99,1.48-1.46-.59.45-1.14.92-1.66,1.4h0Z"/>
        <path class="cls-1" d="M318.27,6.8c.01-.49.34-.43.41-.79l-.57.71s.16.08.16.08Z"/>
        <path class="cls-1" d="M309.82,6.13c.14,1.54-.58.16.19,1.37.39-.38-.18-.84-.19-1.37Z"/>
        <path class="cls-1" d="M308.66,8.76c.29-.03.38-.29.47-.55-.54-.55-.34.2-.47.55Z"/>
      </g>
      <g>
        <path class="cls-1" d="M185.42,189c.13-.13.16-.32.15-.53,0-.21.02-.44.05-.63-.17.38-.37.75-.59,1.09.13.04.27.05.39.07Z"/>
        <path class="cls-1" d="M184.87,188.34c-.37.26-.79.43-1.26.54.26,0,.51-.06.74-.12-.06.37-.25.65-.53.79-.28.15-.61.14-.79.13.49.3.82,0,1.07-.32.25-.35.51-.76.78-1.02h-.01Z"/>
        <path class="cls-1" d="M183.52,188.24c-.08-.35-.81.06-.95.36.34-.12.8-.09.95-.36Z"/>
        <path class="cls-1" d="M197.28,189.29c.08-.16.12-.28.26-.47-.19.17-.28.34-.26.47Z"/>
        <path class="cls-1" d="M197.53,188.82s.07-.06.11-.1c-.02,0-.03,0-.06.03-.02.03-.03.04-.05.07Z"/>
        <path class="cls-1" d="M195.96,177.06c-.66.39-.74-.07-1.28,0l.13-1.06c-.63.13-.54.73-1.08,1.1-.23-.79-1.52-.54-1.76-.64-.06-.51.39-.58.55-.84-.82.15-.95,1.12-1.92.95l.03-.28c-1.29.54-2.53.74-3.87,1.11-1.31.36-2.76.94-3.77,2.09.2-.05.26.16.43.3-.58.43-1.15.95-1.62,1.56-.12.16-.23.31-.33.47-.11.17-.23.38-.32.58-.2.39-.33.8-.4,1.2-.29,1.59.38,3.03,1.73,3.58-.23-.52.1-1.27.4-1.87.31-.63.51-1.13.22-2.19.42.08.52-.15.68-.34.14-.19.31-.31.68.06.7-.22.96-.7,1.34-1.27.36-.55.83-1.15,1.61-1.25.24.17.17.68.27,1.17-.34.19-.67.41-.96.63.23.1.45.19.66.31-.18.47-.82.29-.63,1.2.18-.64.7-.79,1.19-.9.5-.11.98-.19,1.44-.79-.34-.28-.82-.04-1.24-.11-.19-.33-.53-.54-.55-1.05.66-.78,1.4-.93,2.09-.9.72.03,1.36.25,2.1.24.38,0,.81.23.69.71-.26.09-.25.52-.49.69.58-.24.65-1.66,1.24-1.23l-.7,1.57c.91-1.59.62.59,1.44-.21-.13.69-.56.94-.89.85.24.43.67-.47.94-.32l-.85,1.22c.86-1.15.42.48.39.98.17-.32.47-1.4.8-1.16.08.24-.15.54-.2.75.17-.32.57-.86.83-.79-.16.46-.46.6-.68,1.05.19.06.38.03.35.46.49-.23.27-.65.67-1.05.35.53-.63,1.57-.86,2.6-.67.47-1.26.44-1.62.71l.9-.03c-.29.5.13,1.13-.51,1.46.28.41.76.59,1.29.63.52.04,1.01-.08,1.39-.17-.02-.22-.09-.38.06-.71.46-.19.15.46.06.87.36-.28.71-1.21,1.14-1.82.07.48.14.61.19.78.04.16.06.37-.13.96l.49-.86c-.25.78.61-.44.47.18-.12.17-.34.32-.52.47.33-.15-.41.73-.11.5-.27.25-.52.51-.77.79.02,0,.08-.07.07-.05-.03.03-.05.05-.1.09h0s-.11.09.07-.05c.11-.08.17-.09.23-.11.12-.02.19.02.53-.02l-.81.29c.5-.17.51-.07.54,0,.03.08.08.14.7.13l-.34.06c.4.03.77.12,1.17.23-.1.17-1.39.09-1.04.11.23.27.25.56-.23.62,1.11.29,1.3.79,1.28,1.15-.65.54-1.09,1.22-1.64,2.08-.54.86-1.21,1.88-2.02,2.86-.27.15-.34,1.5-.66,2.16.62.12.52-.45,1.03-.61.48.15,1.04,1.2,1.7,1.73l-.55-.82c.25-.95.6.31.63-.78l.65,1.42c-.18-.81.5-.4.87-.15l-.37-1.03c.64.33,1.01.38,1.65,1.14l-.57-.81c.48.46,1.33-1.07,1.91.59-.02-.27-.24-.74.07-.85l.67.73c.21-.49.44-1,.94-.7-.03.35.2.73.43,1.11.88-.71.35-1.39-.22-1.99-.57-.62-1.18-1.23-.73-1.87l.5.41c-.09-.25-.19-.5-.3-.74.3.04.61.07.92.09-.75-.85-.42-1.28,0-1.81.43-.5.94-1.13.49-1.75-.1-.39,1.29-.7,1.21-1.57h-.99c.52-.28.96-1.01,1.42-1.91.49-.89.94-1.97,1.89-2.75-.99-.57-.16.16-.92.37-.73-.58-.78-.98-.62-1.43.14-.45.5-.93.51-1.5-.52-.36-.47-.11-.43.18.04.3.05.66-.41.6-.09-.88-.55-1.01-1.03-1.1-.49-.1-.95-.19-1.43-1.08.23-.55.63.07,1.05-.03-.88-.19-1.66-.74-2.43-1.22-.77-.49-1.49-.94-2.1-1.09-.53-.6-1.16-1.09-1.5-1.51-.32-.41-.7-.9-1.04-1.54l-.17.32c-.06-1.03-.93-.49-1.42-1.15l.11.62h0Z"/>
        <path class="cls-1" d="M186.87,184.76l.31.78c.02-.21.08-.42.14-.63-.29-.62-.24-.05-.45-.15Z"/>
        <path class="cls-1" d="M186.18,182.28c-.06.16-.11.32-.16.47.14-.07.28-.14.43-.2l-.27-.27h0Z"/>
        <path class="cls-1" d="M192.65,184.45v-.15c-.42.08-.82.18-1.2.29.39-.06.79-.1,1.2-.14Z"/>
        <path class="cls-1" d="M196.75,189.96c-.27.35-.19.18-.37.42l.3-.31.07-.11h0Z"/>
        <path class="cls-1" d="M195.72,190.79c.06-.02-.17-.06-.4-.1-.67-.07.11.02.4.1Z"/>
      </g>
      <g>
        <path class="cls-1" d="M142.57,209.99c.38-.12.35-.69.45-1.12-.3.29-.62.57-.94.83.15.11.33.19.49.29Z"/>
        <path class="cls-1" d="M141.87,208.94c-.44.14-.93.25-1.41.31.27.02.54,0,.8,0-.1.86-1.05.87-1.42.79.47.32.82.12,1.12-.19.3-.31.59-.71.9-.91h.01Z"/>
        <path class="cls-1" d="M140.3,208.51c-.15-.43-.81.08-.94.4.33-.15.82-.1.94-.4Z"/>
        <path class="cls-1" d="M154.8,195.27c-.14-.15-.3-.25-.32-.48-.1.26-.09.46.32.48Z"/>
        <path class="cls-1" d="M154.48,194.79s.04-.1.06-.15l-.07.07v.08h.01Z"/>
        <path class="cls-1" d="M143.06,187.06c-.37.8-.83.55-1.28,1.03l-.71-.82c-.48.58.08.92-.15,1.61-.37-.19-1.07.13-1.53.48-.49.35-.86.77-1.04.86-.52-.23-.1-.73-.14-1.05-.75.93-.07,1.64-1.03,2.49l-.21-.19c-.64,1.59-1.4,3.08-1.89,4.71-.25.81-.42,1.64-.5,2.47-.03.41-.05.82-.02,1.26.02.37.09.72.18,1.06.07-.17.28-.11.49-.16.06,1.37.24,2.76.79,3.97.54,1.21,1.51,2.28,2.98,2.64-.36-.52-.28-1.4-.29-2.19-.02-.8-.15-1.52-1.1-2.08.7-.48-.36-1.17.69-1.34.25-.83,0-1.43-.27-2.17-.26-.72-.52-1.56-.11-2.47.29-.17.68.2,1.14.36-.06.49-.07.97-.04,1.44.21-.21.42-.4.64-.57.29.48-.24,1.1.64,1.44-.42-.61-.26-1.29-.03-1.9.24-.62.52-1.18.4-1.98-.51.18-.67.83-1.02,1.25-.4.03-.81.27-1.23.02-.23-1.16.17-2.06.77-2.74.6-.7,1.38-1.19,2.17-1.89.2-.18.46-.33.74-.38.24-.04.44.02.58.23-.19.28.18.55.07.86.36-.63-.69-1.65.21-1.83l.57,1.62c-.39-1.8,1.06-.1,1.24-1.28.43.57.2,1.08-.2,1.28.58.11.28-.85.68-.96l.13,1.51c-.07-1.47.81,0,1.16.38-.08-.35-.64-1.34-.1-1.42.27.11.27.5.38.68-.08-.35-.08-1.04.25-1.17.19.45-.02.77.1,1.26.24-.1.42-.26.7.09.34-.51-.21-.67-.08-1.26.78.16.49,1.62,1,2.56-.32.8-.85,1.18-.98,1.62.26-.21.51-.43.78-.64.1.57.85.8.53,1.45.98.28,1.9-.57,2.72-1.19-.16-.17-.35-.26-.39-.62.4-.42.48.29.65.68.27-.45.06-1.42.15-2.18.88.69.9.18,1.72,1.26l-.2-.97c.57.72.41-.77.98-.27.06.21-.09.48-.2.73.38-.39.52.76.89.32l-.17,1.14c.33-.09.77-.5.74.46.42-1.21,1.53-.92,2.2-1.69l.08.85c.22-1.08,1.47-.19,1.6-1.48l.12.33.59-1.28c.38.03.51,1.32.47.96.76-.38,1.36-.59,1.98-.29-.14-1.15.61-1.65,1.22-1.97,3.34-.18,6.56-2.88,7.85-5.85.32-.33-.14-1.67-.23-2.38-.62.21-.22.68-.68,1.07-.53.08-1.41-.73-2.12-1.11l.74.65c.03.96-.59-.17-.39.87l-.89-1.29c.34.74-.34.42-.68.15l.46.99c-.61-.32-.91-.42-1.49-1.23l.52.85c-.41-.47-1.09.7-1.5-.99.02.24.16.74-.07.73l-.45-.88c-.15.35-.39.65-.67.18.05-.28-.08-.7-.2-1.11-.54.15-.33.91-.06,1.71.26.8.55,1.63-.02,1.88l-.2-.61-.07.74-.57-.66c.23,2.22-1.72.32-2.18,1.61-.27.25-.94-.92-1.48-.67l.24.96c-.67-.87-2.53-1.19-3.36-3.38-.33.83.08.2.2.97-.73,1.16-1.04-.37-1.6-.87-.48.57.48.3.3,1.09-.98-.61-.52,1.31-1.71.83-.19-.53.23-.43.29-.81-.62,1.11-2.19.73-3.38,1.15-1.52-.45-3.73-.28-5.82-.58l.07.35c-1.03-.66-1.61.43-2.65.39l.62.33h-.03Z"/>
        <path class="cls-1" d="M141.29,200.37l.83.12c-.15-.19-.3-.4-.43-.62-.71-.03-.18.27-.4.49h0Z"/>
        <path class="cls-1" d="M138.82,199.61l.31.47c.02-.2.03-.4.07-.61l-.38.14Z"/>
        <path class="cls-1" d="M145.72,194.71l-.13-.09c-.33.37-.63.76-.93,1.14.34-.35.69-.71,1.06-1.05Z"/>
        <path class="cls-1" d="M154.88,196.12c-.08.46-.32.31-.43.63l.54-.51-.11-.12h0Z"/>
        <path class="cls-1" d="M161.7,198.48c-.03-1.54.53-.09-.09-1.37-.37.33.11.85.09,1.37Z"/>
        <path class="cls-1" d="M162.82,195.97c-.25,0-.33.26-.41.51.46.59.31-.18.41-.51Z"/>
      </g>
      <g>
        <path class="cls-1" d="M410.12,155.48c.43-.3-.12-.77-.59-1.17l-.45,1.23,1.04-.05h0Z"/>
        <path class="cls-1" d="M407.8,155.1l-1.19,1.26.85-.61c.93.66-.14,1.35-.5,1.59,1.54-.29.58-1.52.83-2.24h.01Z"/>
        <path class="cls-1" d="M405.48,156.07c-.75-.09-.55.74-.23,1.01.05-.36.55-.74.23-1.01Z"/>
        <path class="cls-1" d="M358.57,154.31c.23.15.49.25.47.48.21-.26.25-.46-.47-.48Z"/>
        <path class="cls-1" d="M359.04,154.79s-.09.1-.14.16c.05-.02.09-.04.14-.07.01-.03,0-.05,0-.08h0Z"/>
        <path class="cls-1" d="M374.83,163.77c.79-.67,1.28-.3,2.06-.61l.49,1.01c.83-.39.33-.89.92-1.47.81.61,2.42-.06,2.79-.03.28.47-.29.67-.4.97.98-.39.87-1.38,2.11-1.45l.03.28c2.91-1.59,6.71-1.33,10-2.31-.23-.05-.17-.27-.26-.47,3.51-.44,7.54-.53,10.34-2.96-1.9.25-5.15-1.35-7.08.49-.73-.72-1.82.36-2.14-.68-2.79-.41-3.87,1.48-6.53,1.58-.39-.17-.22-.69-.34-1.17l2.1-.55-1.3-.38c.55-.47,1.92-.18,2.05-1.11-1.82,1.15-4.81.39-6.38,1.76.77.21,1.7-.1,2.6-.05.41.32,1.02.54,1,1.04-2.51,1.53-4.65.9-7.26,1.48-.65.14-1.55.1-1.68-.37.42-.2.08-.58.42-.84-.91.47,0,1.78-1.36,1.66l.08-1.72c-.44,1.84-1.67-.22-2.56.88-.39-.67.23-1.1.96-1.19-.86-.25-.87.75-1.54.76l.55-1.49c-.63,1.43-1.29-.19-1.73-.63-.03.36.42,1.44-.48,1.42-.4-.16-.22-.54-.33-.74-.03.36-.31,1.04-.89,1.12-.14-.48.34-.76.35-1.26-.44.06-.8.18-1.15-.2-.76.46.1.7-.35,1.26-1.23-.27-.24-1.68-.76-2.68.87-.76,2.03-1.05,2.5-1.47l-1.73.51c.07-.58-1.26-.9-.37-1.52-1.8-.4-3.88.4-5.52.99.25.18.57.27.55.63-.84.41-.8-.31-1.02-.71-.61.45-.46,1.43-.79,2.19-1.39-.72-1.54-.2-2.77-1.3l.16.98c-.87-.72-.85.78-1.76.28-.07-.21.24-.49.48-.74-.73.4-.78-.76-1.49-.31l.49-1.15c-.59.1-1.43.52-1.22-.45-.93,1.22-2.79.97-4.02,1.75v-.86c-.56,1.1-2.48.21-2.92,1.52l-.14-.33-1.2,1.3c-.61-.03-.56-1.34-.57-.97-1.3.37-2.32.58-3.23.24-.07,1.17-1.42,1.64-2.5,1.92-2.7.02-5.42.43-8.14,1.26-2.7.83-5.34,2.18-7.29,3.93-.67.4-.9,2.02-1.21,2.94.99-.35.74-.89,1.66-1.39.83-.1,1.59.86,2.42,1.31l-.66-.77c.63-1.11.81.22,1.23-.97l.48,1.49c0-.85.87-.43,1.24-.12l-.04-1.11c.77.4,1.24.56,1.64,1.47l-.28-.95c.35.54,2.44-.6,1.99,1.2.14-.25.23-.79.66-.75l.23.96c.55-.35,1.21-.64,1.47-.12-.3.28-.34.73-.38,1.17,2.62-.21.07-3.28,2.44-3.7l.06.64.52-.76.75.71c.58-2.29,3.4-.25,4.71-1.58.55-.25,1.46.94,2.53.67l-.19-.97c1,.9,4.33,1.14,5.39,3.34.74-.85-.11-.2-.17-.98,1.5-1.19,1.77.34,2.67.83.94-.59-.79-.29-.34-1.09,1.59.58,1.11-1.33,3.04-.86.24.53-.45.43-.6.81,1.22-1.13,3.73-.75,5.67-1.11,2.3.5,5.63.52,8.3,1.25l.03-.36c1.15.85,2.27-.09,3.57.25l-.65-.49h0Z"/>
        <path class="cls-1" d="M390.24,153.79l-.23-.83-1.21.61c.52.67.76.07,1.45.23h-.01Z"/>
        <polygon class="cls-1" points="390.04 156.36 390.67 155.95 389.64 156.04 390.04 156.36"/>
        <polygon class="cls-1" points="374.51 155.68 374.68 155.81 376.97 154.96 374.51 155.68"/>
        <path class="cls-1" d="M358.58,153.45c.23-.47.63-.32.88-.65l-1.05.53.17.12h0Z"/>
        <path class="cls-1" d="M347.64,151.16c-.24,1.55-.83.08-.12,1.39.62-.33-.01-.86.12-1.39Z"/>
        <path class="cls-1" d="M345.44,153.65c.38,0,.56-.25.74-.5-.58-.61-.5.17-.74.5Z"/>
      </g>
    </g>
    <g id="Layer_1-3" data-name="Layer 1">
      <g class="cls-2">
        <g class="cls-2">
          <path class="cls-1" d="M63.09,139.58v-14.06h1.06v-1.28h-1.06v-2.56h-1.06v-2.56h-1.06v-1.28h-1.06v1.28h-1.06v1.28h-2.12v1.28h-1.06v1.28h-2.12v1.28h-4.24v1.28h-2.12v1.28h-3.18v1.28h-3.18v1.28h-4.24v1.28h-4.24v1.28h-4.24v1.28h-2.12v1.28h-1.06v1.28h-1.06v1.28h-2.12v1.28h-5.3v-1.28h-1.06v-1.28h-1.06v-2.56h-1.06v-7.67h1.06v-1.28h1.06v-1.28h1.06v-2.56h1.06v-3.83h1.06v-3.83h1.06v-3.83h1.06v-3.83h1.06v-3.83h1.06v-3.83h1.06v-3.83h1.06v-5.11h1.06v-3.83h1.06v-3.83h1.06v-3.83h1.06v-3.83h1.06v-3.83h1.06v-2.56h-1.06v-1.28h-2.12v-3.83h1.06v-1.28h1.06v-1.28h1.06v-1.28h3.18v1.28h3.18v1.28h2.12v1.28h2.12v1.28h2.12v1.28h2.12v1.28h1.06v1.28h2.12v1.28h1.06v1.28h1.06v1.28h1.06v1.28h1.06v1.28h1.06v1.28h1.06v1.28h1.06v1.28h1.06v1.28h1.06v2.56h2.12v2.56h1.06v1.28h1.06v1.28h1.06v2.56h2.12v2.56h1.06v1.28h1.06v2.56h1.06v1.28h1.06v2.56h1.06v6.39h-1.06v2.56h-1.06v1.28h-1.06v1.28h-1.06v1.28h-1.06v1.28h3.18v1.28h1.06v6.39h-1.06v7.67h-1.06v-2.56h-1.06v1.28h-1.06v-2.56h1.06v-1.28h-2.12v3.83h-1.06v12.78h-1.06ZM31.27,120.41v-1.28h3.18v-1.28h2.12v-1.28h3.18v-1.28h3.18v-1.28h2.12v-1.28h2.12v-1.28h3.18v-1.28h2.12v-1.28h2.12v-1.28h2.12v-1.28h1.06v-1.28h2.12v-1.28h1.06v-1.28h1.06v-1.28h-1.06v-2.56h-1.06v-2.56h-1.06v-1.28h-1.06v-1.28h-1.06v-1.28h-1.06v-1.28h-1.06v-2.56h-1.06v-1.28h-1.06v-1.28h-1.06v-1.28h-1.06v-1.28h-1.06v-1.28h-1.06v-1.28h-2.12v-1.28h-1.06v-1.28h-1.06v-1.28h-1.06v-1.28h-1.06v-1.28h-1.06v3.83h-1.06v2.56h-1.06v6.39h-1.06v2.56h-1.06v2.56h-1.06v3.83h-1.06v3.83h-1.06v3.83h-1.06v3.83h-1.06v3.83h-1.06v2.56h-1.06v3.83h-1.06v2.56h3.18ZM58.84,126.8v-1.28h1.06v1.28h-1.06ZM59.91,122.96v-1.28h2.12v1.28h-2.12ZM62.03,125.52v-1.28h1.06v1.28h-1.06ZM70.51,114.02v-2.56h1.06v2.56h-1.06ZM71.57,117.85v-1.28h1.06v1.28h-1.06ZM71.57,125.52v-1.28h1.06v1.28h-1.06ZM71.57,128.07v-1.28h1.06v1.28h-1.06ZM72.63,122.96v-1.28h1.06v1.28h-1.06ZM73.7,129.35v-1.28h1.06v1.28h-1.06Z"/>
        </g>
        <g class="cls-2">
          <path class="cls-1" d="M91.19,133.19v-1.28h-2.12v-1.28h-1.06v-1.28h-1.06v-1.28h-1.06v-1.28h-1.06v-1.28h-1.06v-1.28h-1.06v-2.56h-1.06v-3.83h-3.18v1.28h-2.12v1.28h-2.12v-1.28h-2.12v-1.28h-1.06v-3.83h1.06v-1.28h1.06v-1.28h1.06v-2.56h2.12v-1.28h2.12v-1.28h1.06v-2.55h1.06v-5.11h1.06v-3.83h1.06v-3.83h1.06v-3.83h1.06v-2.56h1.06v-3.83h1.06v-3.83h1.06v-3.83h1.06v-2.56h1.06v-2.56h1.06v-1.28h-2.12v-1.28h-2.12v1.28h-4.24v-1.28h-1.06v-5.11h1.06v-2.56h1.06v-2.56h1.06v-1.28h1.06v-1.28h1.06v2.56h1.06v1.28h1.06v-1.28h2.12v1.28h2.12v1.28h2.12v-1.28h1.06v-2.56h1.06v-2.56h1.06v-1.28h3.18v-1.28h3.18v1.28h1.06v2.56h1.06v1.28h1.06v3.83h-1.06v1.28h-2.12v1.28h-1.06v3.83h2.12v1.28h2.12v1.28h2.12v1.28h2.12v1.28h2.12v1.28h2.12v1.28h2.12v1.28h2.12v1.28h2.12v1.28h2.12v1.28h2.12v1.28h2.12v1.28h4.24v-1.28h2.12v-1.28h3.18v-1.28h2.12v-1.28h3.18v-1.28h2.12v-1.28h3.18v-1.28h2.12v-1.28h3.18v-1.28h2.12v-1.28h1.06v-1.28h4.24v2.56h3.18v2.56h1.06v2.56h-1.06v2.56h-1.06v1.28h-1.06v1.28h-5.3v-1.28h-4.24v1.28h-2.12v1.28h-2.12v1.28h-3.18v1.28h-2.12v1.28h-2.12v1.28h-2.12v1.28h-2.12v1.28h-2.12v1.28h-2.12v1.28h-2.12v1.28h-2.12v1.28h-2.12v1.28h-2.12v1.28h-3.18v1.28h-3.18v1.28h-3.18v1.28h-3.18v1.28h-3.18v1.28h-3.18v1.28h-3.18v1.28h-1.06v1.28h-2.12v1.28h-2.12v1.28h-2.12v1.28h-2.12v1.28h-1.06v1.28h-1.06v3.83h1.06v2.56h1.06v1.28h5.3v-1.28h2.12v-1.28h4.24v-1.28h3.18v-1.28h2.12v-1.28h2.12v-1.28h2.12v-1.28h1.06v-1.28h2.12v-1.28h1.06v-1.28h2.12v-1.28h2.12v-1.28h2.12v-1.28h2.12v-1.28h2.12v-1.28h2.12v-1.28h2.12v-1.28h2.12v-1.28h2.12v-1.28h2.12v-1.28h2.12v-1.28h1.06v-1.28h3.18v-1.28h1.06v-1.28h1.06v-1.28h1.06v-1.28h1.06v-1.28h2.12v-1.28h5.3v1.28h1.06v1.28h1.06v1.28h1.06v7.67h-1.06v2.56h-1.06v2.56h-1.06v2.55h1.06v1.28h-1.06v2.55h-1.06v5.11h1.06v5.11h-1.06v-3.83h-1.06v-6.39h-1.06v-5.11h-1.06v-1.28h-2.12v-1.28h-1.06v1.28h-1.06v1.28h-1.06v1.28h-1.06v1.28h-3.18v1.28h-2.12v1.28h-2.12v1.28h-1.06v1.28h-2.12v1.28h-2.12v1.28h-2.12v1.28h-1.06v1.28h-2.12v1.28h-2.12v1.28h-2.12v1.28h-1.06v1.28h-1.06v1.28h-2.12v1.28h-2.12v1.28h-2.12v1.28h-2.12v1.28h-2.12v1.28h-2.12v1.28h-1.06v1.28h-2.12v1.28h-2.12v1.28h-3.18v1.28h-10.61ZM96.49,97.4v-1.28h2.12v-1.28h3.18v-1.28h2.12v-1.28h3.18v-1.28h2.12v-1.28h3.18v-1.28h2.12v-1.28h3.18v-1.28h2.12v-1.28h-1.06v-1.28h-2.12v-1.28h-2.12v-1.28h-1.06v-1.28h-2.12v-1.28h-1.06v-1.28h-2.12v-1.28h-3.18v-1.28h-3.18v1.28h-1.06v1.28h-1.06v2.56h-1.06v2.56h-1.06v3.83h-1.06v2.56h-1.06v2.56h-1.06v2.56h-1.06v3.83h3.18ZM152.71,103.79v-2.56h1.06v2.56h-1.06ZM153.77,111.46v-1.28h1.06v1.28h-1.06ZM153.77,119.13v-2.56h1.06v2.56h-1.06ZM158.01,108.9v-1.28h1.06v1.28h-1.06ZM159.07,101.24v-1.28h1.06v1.28h-1.06ZM160.13,103.79v-1.28h1.06v1.28h-1.06Z"/>
        </g>
        <g class="cls-2">
          <path class="cls-1" d="M180.01,144.69v-1.28h-1.06v-5.11h-1.06v-2.56h-1.06v-1.28h-1.06v-1.28h-1.06v-1.28h-2.12v-1.28h-1.06v-1.28h-1.06v-1.28h-1.06v-1.28h-1.06v-1.28h-1.06v-1.28h-1.06v-1.28h-1.06v-1.28h-1.06v-2.56h-1.06v-2.56h-1.06v-1.28h-3.18v1.28h-2.12v1.28h-2.12v1.28h-1.06v1.28h-1.06v1.28h-1.06v1.28h-1.06v6.39h-1.06v1.28h-1.06v1.28h-2.12v1.28h-4.24v-1.28h-1.06v-1.28h-1.06v-1.28h-1.06v-6.39h1.06v-1.28h1.06v-2.56h1.06v-1.28h1.06v-1.28h1.06v-1.28h1.06v-1.28h2.12v-1.28h1.06v-1.28h2.12v-1.28h1.06v-1.28h2.12v-1.28h2.12v-1.28h1.06v-2.55h-1.06v-2.56h-1.06v-2.56h-1.06v-2.56h-1.06v-3.83h-1.06v-3.83h-1.06v-3.83h-1.06v-2.56h-1.06v-3.83h-1.06v-6.39h-1.06v-1.28h-1.06v-1.28h-1.06v-1.28h-2.12v-1.28h-1.06v-1.28h-1.06v-1.28h-2.12v-7.67h1.06v-1.28h1.06v-1.28h5.3v1.28h1.06v2.56h1.06v1.28h1.06v-1.28h2.12v-1.28h4.24v1.28h1.06v1.28h1.06v1.28h-1.06v3.83h-1.06v2.56h1.06v1.28h1.06v1.28h2.12v1.28h2.12v1.28h2.12v1.28h1.06v1.28h2.12v1.28h2.12v1.28h1.06v1.28h2.12v1.28h3.18v1.28h3.18v1.28h2.12v1.28h2.12v1.28h1.06v1.28h4.24v1.28h2.12v1.28h1.06v1.28h1.06v3.83h-1.06v1.28h-2.12v1.28h-6.36v-1.28h-4.24v-1.28h-3.18v-1.28h-2.12v-1.28h-2.12v-1.28h-2.12v-1.28h-2.12v-1.28h-1.06v-1.28h-2.12v-1.28h-2.12v-1.28h-1.06v2.56h1.06v3.83h1.06v2.56h1.06v2.56h1.06v1.28h1.06v2.56h1.06v1.28h1.06v2.55h1.06v-1.28h3.18v-1.28h7.42v-1.28h13.79v1.28h2.12v1.28h2.12v1.28h1.06v1.28h-6.36v1.28h-6.36v1.28h-5.3v1.28h-3.18v1.28h-4.24v2.56h1.06v1.28h1.06v1.28h1.06v1.28h1.06v1.28h1.06v2.56h1.06v1.28h1.06v1.28h1.06v2.56h1.06v1.28h1.06v1.28h1.06v1.28h1.06v1.28h1.06v1.28h2.12v1.28h1.06v1.28h1.06v6.39h-1.06v2.56h-1.06v1.28h-2.12v1.28h-6.36Z"/>
        </g>
        <g class="cls-2">
          <path class="cls-1" d="M193.6,151.08v-1.28h-2.12v-1.28h-2.12v-1.28h-1.06v-1.28h-1.06v-5.11h1.06v-3.83h2.12v-1.28h8.49v-1.28h5.3v-1.28h5.3v-1.28h2.12v-1.28h3.18v-1.28h2.12v-5.11h1.06v-11.5h1.06v-19.17h1.06v-7.67h-1.06v1.28h-2.12v1.28h-2.12v1.28h-1.06v1.28h-1.06v1.28h-4.24v-1.28h-1.06v-1.28h-1.06v-1.28h-1.06v-6.39h1.06v-2.56h1.06v-1.28h2.12v-1.28h2.12v-1.28h2.12v-1.28h2.12v-1.28h2.12v-1.28h2.12v-1.28h2.12v-1.28h2.12v-1.28h2.12v-1.28h2.12v-1.28h2.12v-1.28h2.12v-1.28h1.06v-2.56h1.06v-1.28h6.36v1.28h1.06v1.28h1.06v2.56h1.06v7.67h-1.06v1.28h-1.06v1.28h-2.12v1.28h-4.24v1.28h-2.12v3.83h-1.06v3.83h-1.06v17.89h-1.06v12.78h-1.06v8.95h1.06v-1.28h1.06v-1.28h5.3v-1.28h4.24v-1.28h4.24v-1.28h1.06v-1.28h1.06v1.28h1.06v-1.28h1.06v-1.28h2.12v-2.56h1.06v-2.56h2.12v-1.28h7.42v1.28h1.06v2.56h1.06v10.22h-2.12v1.28h-6.36v1.28h-1.06v1.28h-2.12v1.28h-3.18v1.28h-3.18v1.28h-2.12v1.28h-3.18v1.28h-1.06v1.28h-6.36v1.28h-3.18v1.28h-4.24v2.56h-4.24v1.28h-3.18v1.28h-2.12v1.28h-1.06v1.28h-6.36v1.28h-5.3v1.28h-3.18v1.28h-3.18v1.28h-1.06v1.28h-3.18ZM222.24,68.01v-2.56h-1.06v-1.28h1.06v-1.28h-1.06v-6.39h-3.18v2.56h-1.06v-5.11h-2.12v-1.28h-1.06v-1.28h-1.06v-2.56h-1.06v-2.56h-1.06v-6.39h1.06v-3.83h1.06v-2.56h1.06v-1.28h1.06v-1.28h1.06v-1.28h1.06v-1.28h3.18v-1.28h8.49v1.28h2.12v1.28h1.06v2.56h2.12v2.56h1.06v2.56h1.06v6.39h-1.06v2.56h-1.06v2.56h-1.06v2.56h-1.06v1.28h-1.06v1.28h-1.06v1.28h-2.12v1.28h1.06v1.28h-1.06v1.28h-1.06v2.56h-1.06v-5.11h-2.12v11.5h-1.06ZM214.81,64.18v-2.56h2.12v1.28h1.06v1.28h-3.18ZM228.6,64.18v-1.28h1.06v1.28h-1.06Z"/>
          <path class="cls-1" d="M298.67,165.13v-1.28h-2.12v-1.28h-1.06v-2.56h-1.06v-6.39h1.06v-6.39h-1.06v-3.83h-1.06v-7.67h-1.06v-5.11h-1.06v-3.83h-1.06v-5.11h-1.06v-3.83h-1.06v-3.83h-1.06v-5.11h-1.06v-1.28h-1.06v1.28h-3.18v1.28h-3.18v1.28h-3.18v1.28h-3.18v1.28h-1.06v2.56h-1.06v1.28h-1.06v2.56h-1.06v1.28h-1.06v2.56h-1.06v1.28h-1.06v1.28h-2.12v2.56h-1.06v1.28h-2.12v3.83h-1.06v1.28h-2.12v1.28h-1.06v1.28h1.06v2.56h-2.12v-2.56h-1.06v1.28h-1.06v2.56h-1.06v7.67h-1.06v-10.22h1.06v-1.28h-1.06v-1.28h-1.06v-1.28h1.06v-1.28h-1.06v1.28h-1.06v-2.56h-1.06v-1.28h2.12v1.28h1.06v-2.56h-1.06v-1.28h1.06v-2.56h2.12v-2.56h1.06v-1.28h1.06v-1.28h1.06v-2.56h1.06v-1.28h-2.12v1.28h-3.18v-1.28h-1.06v-1.28h-1.06v-1.28h-1.06v-3.83h1.06v-1.28h1.06v-1.28h5.3v-1.28h3.18v-1.28h1.06v-1.28h2.12v-2.56h1.06v-2.55h1.06v-1.28h1.06v-2.56h1.06v-1.28h1.06v-2.56h1.06v-2.56h1.06v-1.28h1.06v-2.56h1.06v-2.56h1.06v-1.28h1.06v-2.56h1.06v-1.28h1.06v-2.56h1.06v-3.83h-1.06v-6.39h1.06v-1.28h2.12v-1.28h5.3v2.56h1.06v2.56h4.24v1.28h3.18v2.56h-1.06v1.28h-1.06v2.56h-1.06v3.83h1.06v3.83h1.06v3.83h1.06v3.83h1.06v2.56h1.06v-1.28h2.12v-1.28h1.06v-1.28h2.12v-1.28h1.06v-1.28h1.06v-1.28h1.06v-1.28h2.12v-1.28h5.3v1.28h1.06v1.28h1.06v2.56h1.06v6.39h-1.06v1.28h-1.06v1.28h-1.06v1.28h-8.49v2.56h-2.12v1.28h-3.18v5.11h1.06v3.83h1.06v3.83h1.06v3.83h1.06v3.83h1.06v3.83h1.06v3.83h1.06v3.83h1.06v3.83h1.06v1.28h-1.06v3.83h1.06v2.56h1.06v2.56h1.06v2.56h2.12v2.56h1.06v5.11h-1.06v2.56h-1.06v1.28h-1.06v1.28h-1.06v1.28h-8.49ZM246.69,130.63v-1.28h1.06v1.28h-1.06ZM246.69,137.02v-1.28h1.06v1.28h-1.06ZM246.69,142.13v-2.56h2.12v1.28h-1.06v1.28h-1.06ZM247.75,126.8v-1.28h1.06v1.28h-1.06ZM253.06,144.69v-2.56h1.06v2.56h-1.06ZM253.06,147.24v-1.28h1.06v1.28h-1.06ZM280.64,99.96v-1.28h3.18v-2.56h-1.06v-3.83h-1.06v-2.56h-1.06v1.28h-1.06v2.56h-1.06v2.56h-1.06v1.28h-1.06v2.56h4.24Z"/>
        </g>
        <g class="cls-2">
          <path class="cls-1" d="M318.88,140.85v-1.28h-2.12v-1.28h-1.06v-1.28h-1.06v-2.56h-1.06v-3.83h1.06v-7.67h1.06v-7.67h1.06v-19.17h-1.06v-11.5h-1.06v-1.28h1.06v-1.28h-1.06v-3.83h-1.06v-1.28h1.06v-1.28h-1.06v-1.28h1.06v-1.28h-1.06v-1.28h1.06v-1.28h-1.06v-3.83h-1.06v-1.28h1.06v-1.28h-1.06v-5.11h-1.06v-8.95h-1.06v-2.56h-1.06v-5.11h-1.06v-3.83h1.06v-1.28h1.06v-1.28h4.24v1.28h2.12v1.28h1.06v1.28h1.06v1.28h1.06v1.28h1.06v1.28h1.06v2.56h1.06v1.28h1.06v1.28h1.06v2.56h1.06v1.28h1.06v2.56h2.12v2.56h1.06v2.56h1.06v1.28h1.06v1.28h1.06v2.56h1.06v1.28h1.06v1.28h1.06v2.56h1.06v2.56h1.06v2.56h1.06v2.56h1.06v1.28h1.06v2.56h1.06v1.28h1.06v2.56h1.06v1.28h1.06v-2.56h1.06v-2.56h1.06v-2.56h1.06v-3.83h1.06v-2.56h1.06v-2.56h1.06v-3.83h1.06v-3.83h1.06v-5.11h1.06v-2.56h1.06v-1.28h-1.06v-1.28h-7.42v1.28h-4.24v1.28h-2.12v-1.28h1.06v-1.28h2.12v-1.28h2.12v-1.28h2.12v-1.28h1.06v-1.28h3.18v-1.28h1.06v-1.28h3.18v-1.28h5.3v-1.28h5.3v1.28h3.18v1.28h1.06v2.56h-1.06v2.56h-1.06v2.56h-1.06v2.56h-1.06v3.83h-1.06v1.28h-1.06v2.56h-1.06v3.83h-1.06v1.28h-1.06v3.83h-1.06v5.11h-1.06v5.11h-1.06v5.11h-2.12v1.28h1.06v2.56h-1.06v3.83h-1.06v6.39h-1.06v16.61h1.06v1.28h1.06v6.39h-1.06v2.56h-1.06v2.56h-1.06v1.28h-6.36v-1.28h-1.06v-1.28h-1.06v-1.28h-1.06v-3.83h-1.06v-10.22h-1.06v-5.11h-1.06v-1.28h-1.06v-2.56h-1.06v-2.56h-1.06v-2.55h-1.06v-2.56h-1.06v-1.28h-1.06v-2.56h-1.06v-2.56h-1.06v-2.56h-1.06v-1.28h-1.06v-2.56h-1.06v-2.56h-1.06v-2.56h-2.12v-1.28h-1.06v1.28h-1.06v3.83h-1.06v1.28h1.06v1.28h-1.06v1.28h1.06v12.78h1.06v1.28h-1.06v1.28h1.06v2.56h-1.06v1.28h1.06v6.39h1.06v3.83h-1.06v1.28h1.06v16.61h-1.06v2.56h-1.06v2.56h-3.18v1.28h-3.18Z"/>
          <path class="cls-1" d="M436.8,151.08v-7.67h-1.06v-1.28h1.06v-7.67h-1.06v5.11h-1.06v-5.11h-12.73v-1.28h-2.12v-1.28h-1.06v-1.28h-2.12v-1.28h-1.06v-1.28h-2.12v-1.28h-2.12v-1.28h-1.06v-1.28h-1.06v-1.28h-1.06v-1.28h-1.06v-1.28h-2.12v-1.28h-1.06v-1.28h-1.06v-1.28h-1.06v-1.28h-1.06v-1.28h-1.06v-1.28h-1.06v-1.28h-1.06v-1.28h-1.06v-1.28h-1.06v-1.28h-1.06v-1.28h-1.06v-1.28h-1.06v-1.28h-1.06v-1.28h-1.06v-2.55h-1.06v-1.28h-1.06v-2.56h-1.06v-2.56h-1.06v-1.28h-1.06v-2.56h-1.06v-2.56h-1.06v-2.56h-1.06v-1.28h-1.06v-2.56h-1.06v-2.56h-1.06v-1.28h-1.06v-5.11h-1.06v-2.56h-1.06v-2.56h-1.06v-3.83h-1.06v-3.83h-1.06v-2.56h-1.06v-6.39h1.06v-1.28h1.06v-1.28h4.24v1.28h1.06v-2.56h-1.06v-3.83h1.06v1.28h1.06v-2.56h4.24v2.56h1.06v1.28h1.06v3.83h-1.06v1.28h4.24v1.28h4.24v1.28h4.24v1.28h3.18v1.28h2.12v1.28h2.12v1.28h3.18v1.28h3.18v1.28h2.12v1.28h2.12v1.28h3.18v1.28h2.12v-1.28h5.3v1.28h1.06v1.28h1.06v1.28h1.06v10.22h-1.06v1.28h-1.06v1.28h-2.12v1.28h-5.3v-1.28h-1.06v-1.28h-1.06v-2.56h-1.06v-1.28h-1.06v-1.28h-2.12v-1.28h-3.18v-1.28h-2.12v-1.28h-3.18v-1.28h-2.12v-1.28h-3.18v-1.28h-3.18v-1.28h-2.12v-1.28h-2.12v-1.28h-2.12v-1.28h-6.36v1.28h1.06v1.28h1.06v2.56h1.06v2.56h1.06v3.83h1.06v1.28h1.06v2.56h1.06v2.56h1.06v2.56h1.06v2.56h1.06v1.28h1.06v2.56h1.06v1.28h1.06v2.56h1.06v1.28h1.06v2.56h1.06v1.28h1.06v1.28h1.06v1.28h1.06v1.28h2.12v1.28h1.06v1.28h1.06v1.28h1.06v1.28h1.06v1.28h1.06v1.28h1.06v1.28h1.06v1.28h1.06v1.28h1.06v1.28h2.12v1.28h2.12v1.28h2.12v1.28h2.12v1.28h3.18v1.28h7.42v-5.11h1.06v-1.28h1.06v-1.28h1.06v-1.28h5.3v1.28h2.12v2.56h1.06v7.67h-1.06v2.56h-1.06v2.56h-1.06v2.56h-1.06v1.28h-1.06v6.39h-1.06v-3.83h-1.06v5.11h-1.06v12.78h-1.06ZM373.16,39.89v-1.28h1.06v1.28h-1.06ZM375.28,42.45v-1.28h2.12v1.28h-2.12ZM375.28,46.28v-2.56h1.06v2.56h-1.06ZM376.34,36.06v-1.28h1.06v1.28h-1.06ZM380.59,39.89v-1.28h1.06v1.28h-1.06ZM382.71,39.89v-1.28h1.06v1.28h-1.06ZM384.83,43.73v-2.56h1.06v2.56h-1.06ZM388.01,39.89v-1.28h1.06v1.28h-1.06ZM391.19,38.62v-1.28h1.06v1.28h-1.06ZM430.44,115.29v-2.56h1.06v1.28h1.06v1.28h-2.12ZM431.5,143.41v-1.28h1.06v1.28h-1.06ZM432.56,111.46v-1.28h1.06v1.28h-1.06ZM432.56,144.69v-1.28h1.06v1.28h-1.06ZM434.68,108.9v-1.28h1.06v1.28h-1.06ZM434.68,142.13v-1.28h1.06v1.28h-1.06ZM443.17,107.63v-1.28h1.06v1.28h-1.06ZM443.17,135.74v-2.56h1.06v2.56h-1.06ZM444.23,131.91v-1.28h1.06v1.28h-1.06Z"/>
        </g>
        <g class="cls-2">
          <path class="cls-1" d="M456.08,133.19v-1.28h-2.12v-1.28h-1.06v-1.28h-1.06v-1.28h-1.06v-1.28h-1.06v-1.28h-1.06v-1.28h-1.06v-2.56h-1.06v-3.83h-3.18v1.28h-2.12v1.28h-2.12v-1.28h-2.12v-1.28h-1.06v-3.83h1.06v-1.28h1.06v-1.28h1.06v-2.56h2.12v-1.28h2.12v-1.28h1.06v-2.55h1.06v-5.11h1.06v-3.83h1.06v-3.83h1.06v-3.83h1.06v-2.56h1.06v-3.83h1.06v-3.83h1.06v-3.83h1.06v-2.56h1.06v-2.56h1.06v-1.28h-2.12v-1.28h-2.12v1.28h-4.24v-1.28h-1.06v-5.11h1.06v-2.56h1.06v-2.56h1.06v-1.28h1.06v-1.28h1.06v2.56h1.06v1.28h1.06v-1.28h2.12v1.28h2.12v1.28h2.12v-1.28h1.06v-2.56h1.06v-2.56h1.06v-1.28h3.18v-1.28h3.18v1.28h1.06v2.56h1.06v1.28h1.06v3.83h-1.06v1.28h-2.12v1.28h-1.06v3.83h2.12v1.28h2.12v1.28h2.12v1.28h2.12v1.28h2.12v1.28h2.12v1.28h2.12v1.28h2.12v1.28h2.12v1.28h2.12v1.28h2.12v1.28h2.12v1.28h4.24v-1.28h2.12v-1.28h3.18v-1.28h2.12v-1.28h3.18v-1.28h2.12v-1.28h3.18v-1.28h2.12v-1.28h3.18v-1.28h2.12v-1.28h1.06v-1.28h4.24v2.56h3.18v2.56h1.06v2.56h-1.06v2.56h-1.06v1.28h-1.06v1.28h-5.3v-1.28h-4.24v1.28h-2.12v1.28h-2.12v1.28h-3.18v1.28h-2.12v1.28h-2.12v1.28h-2.12v1.28h-2.12v1.28h-2.12v1.28h-2.12v1.28h-2.12v1.28h-2.12v1.28h-2.12v1.28h-2.12v1.28h-3.18v1.28h-3.18v1.28h-3.18v1.28h-3.18v1.28h-3.18v1.28h-3.18v1.28h-3.18v1.28h-1.06v1.28h-2.12v1.28h-2.12v1.28h-2.12v1.28h-2.12v1.28h-1.06v1.28h-1.06v3.83h1.06v2.56h1.06v1.28h5.3v-1.28h2.12v-1.28h4.24v-1.28h3.18v-1.28h2.12v-1.28h2.12v-1.28h2.12v-1.28h1.06v-1.28h2.12v-1.28h1.06v-1.28h2.12v-1.28h2.12v-1.28h2.12v-1.28h2.12v-1.28h2.12v-1.28h2.12v-1.28h2.12v-1.28h2.12v-1.28h2.12v-1.28h2.12v-1.28h2.12v-1.28h1.06v-1.28h3.18v-1.28h1.06v-1.28h1.06v-1.28h1.06v-1.28h1.06v-1.28h2.12v-1.28h5.3v1.28h1.06v1.28h1.06v1.28h1.06v7.67h-1.06v2.56h-1.06v2.56h-1.06v2.55h1.06v1.28h-1.06v2.55h-1.06v5.11h1.06v5.11h-1.06v-3.83h-1.06v-6.39h-1.06v-5.11h-1.06v-1.28h-2.12v-1.28h-1.06v1.28h-1.06v1.28h-1.06v1.28h-1.06v1.28h-3.18v1.28h-2.12v1.28h-2.12v1.28h-1.06v1.28h-2.12v1.28h-2.12v1.28h-2.12v1.28h-1.06v1.28h-2.12v1.28h-2.12v1.28h-2.12v1.28h-1.06v1.28h-1.06v1.28h-2.12v1.28h-2.12v1.28h-2.12v1.28h-2.12v1.28h-2.12v1.28h-2.12v1.28h-1.06v1.28h-2.12v1.28h-2.12v1.28h-3.18v1.28h-10.61ZM461.38,97.4v-1.28h2.12v-1.28h3.18v-1.28h2.12v-1.28h3.18v-1.28h2.12v-1.28h3.18v-1.28h2.12v-1.28h3.18v-1.28h2.12v-1.28h-1.06v-1.28h-2.12v-1.28h-2.12v-1.28h-1.06v-1.28h-2.12v-1.28h-1.06v-1.28h-2.12v-1.28h-3.18v-1.28h-3.18v1.28h-1.06v1.28h-1.06v2.56h-1.06v2.56h-1.06v3.83h-1.06v2.56h-1.06v2.56h-1.06v2.56h-1.06v3.83h3.18ZM517.6,103.79v-2.56h1.06v2.56h-1.06ZM518.66,111.46v-1.28h1.06v1.28h-1.06ZM518.66,119.13v-2.56h1.06v2.56h-1.06ZM522.91,108.9v-1.28h1.06v1.28h-1.06ZM523.97,101.24v-1.28h1.06v1.28h-1.06ZM525.03,103.79v-1.28h1.06v1.28h-1.06Z"/>
        </g>
      </g>
    </g>
  </g>
</svg>