<?xml version="1.0" encoding="UTF-8"?>
<svg id="Layer_2" data-name="Layer 2" xmlns="http://www.w3.org/2000/svg" viewBox="0 0 61 61">
  <defs>
    <style>
      .cls-1 {
        fill: none;
        stroke: #39b54a;
        stroke-miterlimit: 10;
      }
    </style>
  </defs>
  <g id="Layer_1-2" data-name="Layer 1">
    <ellipse class="cls-1" cx="34.28" cy="36.48" rx="11.26" ry="10.87"/>
    <path class="cls-1" d="M9.72,45.15s4.72,9.33,10.25,12.1c5.88,3.22,14.65,3.25,14.65,3.25,0,0,11.91.03,17.89-6.11,7.76-7.28,7.9-14.84,7.9-14.84l.09-18.94s-.07-4.15-4.92-4.08c-4.45.06-4.37,4.08-4.37,4.08V7.78s.27-3.66-6.54-3.66c-6.42,0-5.97,3.66-5.97,3.66V3.63s.89-3.16-6.65-3.13-6.76,3.13-6.76,3.13v7.89s-.27-3.95-5.51-3.86c-5.69.09-5.19,3.86-5.19,3.86l-.09,20.43s.07.76-.4.73c-.29-.02-.89-.73-.89-.73l-4.04-5.15s-1.86-4.46-6.76-2.19c-3.88,2.46-.64,7.21-.64,7.21l7.95,13.32Z"/>
  </g>
</svg>