{
	"asset":{
		"generator":"Khronos glTF Blender I/O v4.5.48",
		"version":"2.0"
	},
	"scene":0,
	"scenes":[
		{
			"name":"Scene",
			"nodes":[
				1
			]
		}
	],
	"nodes":[
		{
			"mesh":0,
			"name":"Mesh",
			"scale":[
				1,
				0.7392966747283936,
				1
			],
			"translation":[
				0,
				0.6706541776657104,
				0
			]
		},
		{
			"children":[
				0
			],
			"name":"Player"
		}
	],
	"materials":[
		{
			"name":"Material_0",
			"pbrMetallicRoughness":{
				"baseColorTexture":{
					"index":0
				},
				"metallicFactor":0
			}
		}
	],
	"meshes":[
		{
			"name":"Mesh_0",
			"primitives":[
				{
					"attributes":{
						"POSITION":0,
						"NORMAL":1,
						"TEXCOORD_0":2
					},
					"indices":3,
					"material":0
				}
			]
		}
	],
	"textures":[
		{
			"sampler":0,
			"source":0
		}
	],
	"images":[
		{
			"mimeType":"image/png",
			"name":"goofy",
			"uri":"goofy.png"
		}
	],
	"accessors":[
		{
			"bufferView":0,
			"componentType":5126,
			"count":1950,
			"max":[
				0.4000000059604645,
				0.8999999761581421,
				0.4000000059604645
			],
			"min":[
				-0.4000000059604645,
				-0.8999999761581421,
				-0.4000000059604645
			],
			"type":"VEC3"
		},
		{
			"bufferView":1,
			"componentType":5126,
			"count":1950,
			"type":"VEC3"
		},
		{
			"bufferView":2,
			"componentType":5126,
			"count":1950,
			"type":"VEC2"
		},
		{
			"bufferView":3,
			"componentType":5123,
			"count":10368,
			"type":"SCALAR"
		}
	],
	"bufferViews":[
		{
			"buffer":0,
			"byteLength":23400,
			"byteOffset":0,
			"target":34962
		},
		{
			"buffer":0,
			"byteLength":23400,
			"byteOffset":23400,
			"target":34962
		},
		{
			"buffer":0,
			"byteLength":15600,
			"byteOffset":46800,
			"target":34962
		},
		{
			"buffer":0,
			"byteLength":20736,
			"byteOffset":62400,
			"target":34963
		}
	],
	"samplers":[
		{
			"magFilter":9729,
			"minFilter":9987
		}
	],
	"buffers":[
		{
			"byteLength":83136,
			"uri":"Player.bin"
		}
	]
}
